<svg width="61" height="60" viewBox="0 0 61 60" fill="none" xmlns="http://www.w3.org/2000/svg">
<path d="M55.4986 42.8965C54.2886 42.8995 53.1181 43.3271 52.191 44.1046C51.2639 44.8821 50.6391 45.9603 50.4255 47.1513H44.3711C43.324 47.1499 42.3201 46.7333 41.5798 45.9927C40.8395 45.2522 40.4232 44.2482 40.4222 43.2011V36.8196H50.3729C51.7605 36.8197 53.1337 36.5391 54.4101 35.9947C55.6865 35.4503 56.8395 34.6534 57.7999 33.6518C58.7603 32.6503 59.5081 31.4648 59.9985 30.1667C60.4889 28.8687 60.7117 27.4848 60.6534 26.0984C60.5951 24.7121 60.257 23.3518 59.6594 22.0995C59.0618 20.8471 58.2171 19.7286 57.1761 18.8112C56.135 17.8938 54.9191 17.1964 53.6016 16.7611C52.2841 16.3257 50.8921 16.1613 49.5094 16.2779C49.537 15.952 49.5507 15.6287 49.5507 15.3116C49.5543 12.9304 48.8507 10.6017 47.5291 8.62088C46.2074 6.64007 44.3273 5.09635 42.1272 4.18549C39.927 3.27463 37.5059 3.03766 35.1709 3.50463C32.8359 3.9716 30.6921 5.12147 29.0115 6.80843C28.2584 4.5618 26.7305 2.65639 24.7012 1.43306C22.6719 0.209729 20.2736 -0.251725 17.9352 0.131244C15.5968 0.514214 13.471 1.71662 11.938 3.52338C10.4049 5.33014 9.5647 7.62339 9.56758 9.9929C9.56758 10.1909 9.56758 10.3939 9.58763 10.597C8.44332 10.5263 7.29647 10.6862 6.21517 11.0673C5.13386 11.4484 4.14015 12.0428 3.29302 12.8154C2.4459 13.5879 1.76262 14.5228 1.28378 15.5645C0.804926 16.6062 0.54026 17.7335 0.50549 18.8795C0.470721 20.0254 0.666557 21.1667 1.08137 22.2355C1.49619 23.3043 2.12152 24.2789 2.92026 25.1014C3.71899 25.9239 4.67484 26.5775 5.73105 27.0234C6.78726 27.4693 7.9223 27.6985 9.0688 27.6973H10.2168C10.1751 28.0023 10.1504 28.3094 10.1428 28.6172C10.1448 30.7911 11.0092 32.8755 12.5463 34.4128C14.0833 35.9501 16.1675 36.8148 18.3415 36.8171H20.7489V43.1998C20.7479 44.247 20.3316 45.2509 19.5913 45.9915C18.851 46.732 17.8471 47.1487 16.8 47.15H10.7456C10.518 45.88 9.82306 44.7413 8.79778 43.9581C7.7725 43.1748 6.49113 42.8038 5.20597 42.9181C3.92082 43.0324 2.72502 43.6237 1.85404 44.5755C0.98305 45.5274 0.5 46.7709 0.5 48.0611C0.5 49.3513 0.98305 50.5948 1.85404 51.5467C2.72502 52.4986 3.92082 53.0899 5.20597 53.2041C6.49113 53.3184 7.7725 52.9474 8.79778 52.1642C9.82306 51.3809 10.518 50.2422 10.7456 48.9722H16.8C18.3306 48.9706 19.7981 48.3617 20.8803 47.2792C21.9625 46.1968 22.5711 44.7292 22.5724 43.1986V25.4202C22.5769 25.2976 22.5567 25.1754 22.5129 25.0608C22.4692 24.9462 22.4027 24.8417 22.3176 24.7533C22.2325 24.665 22.1305 24.5947 22.0176 24.5468C21.9047 24.4988 21.7833 24.474 21.6607 24.474C21.538 24.474 21.4166 24.4988 21.3037 24.5468C21.1908 24.5947 21.0888 24.665 21.0037 24.7533C20.9186 24.8417 20.8521 24.9462 20.8084 25.0608C20.7646 25.1754 20.7444 25.2976 20.7489 25.4202V34.9962H18.3415C16.7564 34.9965 15.2282 34.4061 14.0551 33.3402C12.8821 32.2742 12.1484 30.8093 11.9975 29.2315C11.8465 27.6537 12.2891 26.0763 13.2388 24.8073C14.1884 23.5382 15.577 22.6687 17.1334 22.3686C17.2759 22.342 17.41 22.2819 17.5246 22.1931C17.6392 22.1043 17.7309 21.9894 17.7922 21.858C17.8535 21.7266 17.8825 21.5825 17.8769 21.4377C17.8713 21.2928 17.8312 21.1514 17.76 21.0251C17.1531 19.937 16.9518 18.6689 17.1921 17.4463C17.4323 16.2238 18.0984 15.1261 19.0719 14.3485C20.0454 13.5709 21.2632 13.1639 22.5086 13.1998C23.754 13.2357 24.9463 13.7123 25.8734 14.5446C25.9968 14.6562 26.1484 14.7319 26.3118 14.7636C26.4751 14.7952 26.644 14.7816 26.8002 14.7242C26.9563 14.6667 27.0938 14.5677 27.1978 14.4377C27.3017 14.3078 27.3681 14.1519 27.3898 13.987C27.5639 12.6311 28.0083 11.324 28.6968 10.1431C29.3853 8.96222 30.3039 7.93153 31.398 7.11214C32.4922 6.29274 33.7397 5.70131 35.0666 5.37289C36.3935 5.04447 37.7728 4.98574 39.1229 5.20019C40.4729 5.41464 41.7661 5.8979 42.926 6.62133C44.0858 7.34476 45.0886 8.29365 45.875 9.41176C46.6614 10.5299 47.2153 11.7945 47.504 13.1306C47.7927 14.4667 47.8102 15.8472 47.5556 17.1902C47.5279 17.3372 47.5371 17.4888 47.5824 17.6314C47.6277 17.774 47.7076 17.9032 47.815 18.0073C47.9214 18.1135 48.0529 18.191 48.1973 18.2329C48.3416 18.2747 48.4942 18.2795 48.6409 18.2467C49.8013 18.0023 51.0002 18.0044 52.1598 18.253C53.3193 18.5015 54.4137 18.9909 55.3721 19.6895C56.3304 20.388 57.1313 21.2802 57.7228 22.308C58.3143 23.3359 58.6833 24.4765 58.8058 25.6561C58.9283 26.8357 58.8016 28.0278 58.4339 29.1553C58.0662 30.2827 57.4658 31.3204 56.6714 32.2009C55.8771 33.0815 54.9066 33.7854 53.8229 34.2669C52.7391 34.7484 51.5663 34.9969 50.3804 34.9962H40.4297V25.4202C40.4343 25.2976 40.414 25.1754 40.3703 25.0608C40.3265 24.9462 40.2601 24.8417 40.175 24.7533C40.0898 24.665 39.9878 24.5947 39.8749 24.5468C39.762 24.4988 39.6406 24.474 39.518 24.474C39.3953 24.474 39.2739 24.4988 39.161 24.5468C39.0482 24.5947 38.9461 24.665 38.861 24.7533C38.7759 24.8417 38.7095 24.9462 38.6657 25.0608C38.6219 25.1754 38.6017 25.2976 38.6063 25.4202V43.1986C38.6076 44.7279 39.2151 46.1944 40.2957 47.2766C41.3763 48.3588 42.8418 48.9686 44.3711 48.9722H50.4255C50.5998 49.9382 51.046 50.8344 51.7118 51.5557C52.3776 52.277 53.2353 52.7934 54.1842 53.0443C55.1332 53.2952 56.134 53.2702 57.0693 52.9722C58.0045 52.6742 58.8354 52.1157 59.4643 51.3621C60.0933 50.6085 60.4942 49.6911 60.6201 48.7176C60.7459 47.7441 60.5915 46.755 60.1748 45.8662C59.7582 44.9774 59.0967 44.2259 58.268 43.6999C57.4392 43.1739 56.4777 42.8952 55.4961 42.8965H55.4986ZM5.67253 51.4047C5.01153 51.4047 4.36536 51.2088 3.81574 50.8415C3.26612 50.4743 2.83772 49.9524 2.5847 49.3417C2.33169 48.7311 2.26543 48.0591 2.39429 47.4108C2.52316 46.7624 2.84136 46.1669 3.30868 45.6994C3.77599 45.2319 4.37143 44.9135 5.0197 44.7844C5.66798 44.6553 6.33998 44.7213 6.95074 44.9741C7.5615 45.2268 8.08359 45.655 8.45101 46.2045C8.81842 46.754 9.01466 47.4001 9.01491 48.0611C9.01424 48.9475 8.66193 49.7974 8.03529 50.4242C7.40865 51.0511 6.5589 51.4037 5.67253 51.4047ZM25.8571 12.2926C24.5967 11.5676 23.1436 11.2483 21.6954 11.378C20.2471 11.5077 18.8739 12.0801 17.7623 13.0174C16.6507 13.9547 15.8547 15.2115 15.4823 16.6171C15.1099 18.0226 15.1792 19.5087 15.6809 20.8735C14.5185 21.2755 13.4614 21.9336 12.5877 22.7991C11.7139 23.6646 11.0458 24.7154 10.6328 25.8739H9.0688C7.28226 25.8739 5.5689 25.1642 4.30563 23.9009C3.04236 22.6376 2.33267 20.9243 2.33267 19.1377C2.33267 17.3512 3.04236 15.6378 4.30563 14.3746C5.5689 13.1113 7.28226 12.4016 9.0688 12.4016C9.5323 12.4023 9.99443 12.4523 10.4474 12.5507C10.5941 12.5802 10.7458 12.5738 10.8896 12.5321C11.0333 12.4904 11.1649 12.4147 11.2732 12.3114C11.3811 12.2069 11.4615 12.0775 11.5074 11.9345C11.5533 11.7916 11.5633 11.6395 11.5364 11.4918C11.4411 10.9961 11.3924 10.4926 11.391 9.98788C11.3879 7.94924 12.1481 5.98329 13.522 4.47712C14.8958 2.97095 16.7838 2.03371 18.8142 1.84995C20.8445 1.66619 22.8701 2.24922 24.4921 3.48424C26.114 4.71926 27.2149 6.51678 27.5778 8.52286C26.7893 9.66979 26.207 10.9455 25.8571 12.2926ZM55.4986 51.4047C54.8376 51.4047 54.1914 51.2088 53.6418 50.8415C53.0922 50.4743 52.6638 49.9524 52.4108 49.3417C52.1577 48.7311 52.0915 48.0591 52.2203 47.4108C52.3492 46.7624 52.6674 46.1669 53.1347 45.6994C53.602 45.2319 54.1975 44.9135 54.8458 44.7844C55.494 44.6553 56.166 44.7213 56.7768 44.9741C57.3876 45.2268 57.9096 45.655 58.2771 46.2045C58.6445 46.754 58.8407 47.4001 58.841 48.0611C58.8403 48.9475 58.488 49.7974 57.8613 50.4242C57.2347 51.0511 56.385 51.4037 55.4986 51.4047Z" fill="white"/>
<path d="M31.4967 49.0662V25.4215C31.4967 25.1798 31.4007 24.9481 31.2298 24.7772C31.0589 24.6064 30.8272 24.5104 30.5856 24.5104C30.3439 24.5104 30.1122 24.6064 29.9413 24.7772C29.7705 24.9481 29.6745 25.1798 29.6745 25.4215V49.0662C28.4041 49.2939 27.2651 49.9889 26.4816 51.0145C25.6981 52.04 25.327 53.3217 25.4413 54.6072C25.5556 55.8926 26.147 57.0888 27.0991 57.96C28.0512 58.8312 29.295 59.3144 30.5856 59.3144C31.8761 59.3144 33.1199 58.8312 34.072 57.96C35.0241 57.0888 35.6156 55.8926 35.7298 54.6072C35.8441 53.3217 35.473 52.04 34.6895 51.0145C33.906 49.9889 32.767 49.2939 31.4967 49.0662ZM30.5856 57.4792C29.9247 57.4789 29.2788 57.2827 28.7294 56.9153C28.1801 56.5479 27.752 56.0259 27.4994 55.4152C27.2468 54.8045 27.181 54.1327 27.3102 53.4846C27.4395 52.8365 27.7581 52.2413 28.2256 51.7742C28.6932 51.3072 29.2887 50.9893 29.937 50.8607C30.5852 50.7322 31.257 50.7988 31.8674 51.0521C32.4778 51.3054 32.9994 51.7341 33.3662 52.2838C33.7329 52.8335 33.9284 53.4797 33.9279 54.1406C33.9263 55.0262 33.5735 55.875 32.9469 56.5008C32.3204 57.1267 31.4712 57.4785 30.5856 57.4792Z" fill="white"/>
</svg>
