<svg width="100" height="65" viewBox="0 0 100 65" fill="none" xmlns="http://www.w3.org/2000/svg">
<path d="M75 8.125H25C15.7917 8.125 8.33334 13.4815 8.33334 20.0718V50.3449C8.33334 56.9352 15.7917 62.2916 25 62.2916H75C84.2083 62.2916 91.6666 56.9352 91.6666 50.3449V20.0718C91.6666 13.4815 84.2083 8.125 75 8.125ZM35.4167 20.6736C40.7083 20.6736 45.0416 23.8032 45.0416 27.625C45.0416 31.4467 40.7083 34.5764 35.4167 34.5764C30.125 34.5764 25.7917 31.4467 25.7917 27.625C25.7917 23.8032 30.125 20.6736 35.4167 20.6736ZM51.5416 49.2315C51.1666 49.5324 50.5833 49.7129 50 49.7129H20.8333C20.25 49.7129 19.6667 49.5324 19.2917 49.2315C19.1009 49.0763 18.9548 48.8953 18.8618 48.699C18.7688 48.5027 18.7308 48.295 18.75 48.0879C19.0983 45.6336 20.6127 43.3421 23.0358 41.6031C25.459 39.864 28.6412 38.7847 32.0417 38.5486C34.2729 38.3981 36.5187 38.3981 38.75 38.5486C45.75 39.0301 51.375 43.0324 52.0416 48.0879C52.125 48.5092 51.9166 48.9305 51.5416 49.2315ZM79.1666 49.5023H70.8333C69.125 49.5023 67.7083 48.4791 67.7083 47.2453C67.7083 46.0116 69.125 44.9884 70.8333 44.9884H79.1666C80.8749 44.9884 82.2916 46.0116 82.2916 47.2453C82.2916 48.4791 80.8749 49.5023 79.1666 49.5023ZM79.1666 37.4653H62.5C60.7916 37.4653 59.375 36.4421 59.375 35.2083C59.375 33.9745 60.7916 32.9514 62.5 32.9514H79.1666C80.8749 32.9514 82.2916 33.9745 82.2916 35.2083C82.2916 36.4421 80.8749 37.4653 79.1666 37.4653ZM79.1666 25.4282H58.3333C56.625 25.4282 55.2083 24.4051 55.2083 23.1713C55.2083 21.9375 56.625 20.9143 58.3333 20.9143H79.1666C80.8749 20.9143 82.2916 21.9375 82.2916 23.1713C82.2916 24.4051 80.8749 25.4282 79.1666 25.4282Z" fill="#FFFDFD"/>
</svg>
