<svg width="60" height="60" viewBox="0 0 60 60" fill="none" xmlns="http://www.w3.org/2000/svg">
<path d="M26.25 37.5H33.75L32.3125 29.4375C33.1458 29.0208 33.8025 28.4167 34.2825 27.625C34.7625 26.8333 35.0017 25.9583 35 25C35 23.625 34.51 22.4475 33.53 21.4675C32.55 20.4875 31.3733 19.9983 30 20C28.625 20 27.4475 20.49 26.4675 21.47C25.4875 22.45 24.9983 23.6267 25 25C25 25.9583 25.24 26.8333 25.72 27.625C26.2 28.4167 26.8558 29.0208 27.6875 29.4375L26.25 37.5ZM30 55C24.2083 53.5416 19.4267 50.2183 15.655 45.03C11.8833 39.8417 9.99833 34.0817 10 27.75V12.5L30 5L50 12.5V27.75C50 34.0833 48.1142 39.8442 44.3425 45.0325C40.5708 50.2208 35.79 53.5433 30 55Z" fill="#E2E2E2"/>
</svg>
