<svg width="89" height="58" viewBox="0 0 89 58" fill="none" xmlns="http://www.w3.org/2000/svg">
<path d="M74.6302 25.6375H60.2604C53.0755 25.6375 49.4831 28.5795 49.4831 34.4636V53.5868C49.4831 54.3959 50.2914 55.0578 51.2793 55.0578H74.6302C81.8151 55.0578 85.4076 52.1158 85.4076 46.2317V34.4636C85.4076 28.5795 81.8151 25.6375 74.6302 25.6375ZM71.0378 45.1285H58.4642C57.7277 45.1285 57.117 44.6283 57.117 44.0252C57.117 43.4221 57.7277 42.9219 58.4642 42.9219H71.0378C71.7742 42.9219 72.3849 43.4221 72.3849 44.0252C72.3849 44.6283 71.7742 45.1285 71.0378 45.1285ZM76.4264 37.7734H58.4642C57.7277 37.7734 57.117 37.2732 57.117 36.6701C57.117 36.067 57.7277 35.5668 58.4642 35.5668H76.4264C77.1629 35.5668 77.7736 36.067 77.7736 36.6701C77.7736 37.2732 77.1629 37.7734 76.4264 37.7734Z" fill="white"/>
<path d="M22.695 19.9097H41.385M18.69 34.9462H29.37L41.2515 40.5589C41.6525 40.7487 42.1185 40.8577 42.5998 40.8741C43.0812 40.8906 43.5598 40.814 43.9846 40.6524C44.4095 40.4909 44.7646 40.2504 45.0121 39.9568C45.2596 39.6631 45.3902 39.3273 45.39 38.985V34.9462C53.4 34.9462 58.74 31.1539 58.74 25.4654V14.0885C58.74 8.39999 53.4 4.60767 45.39 4.60767H18.69C10.68 4.60767 5.34 8.39999 5.34 14.0885V25.4654C5.34 31.1539 10.68 34.9462 18.69 34.9462Z" stroke="white" stroke-width="1.5" stroke-miterlimit="10" stroke-linecap="round" stroke-linejoin="round"/>
<path d="M52.5616 11.895C51.642 11.5926 49.7132 11.2764 47.0892 12.4037L43.7922 13.8334C43.5455 9.55801 40.5178 7.88086 33.1614 7.88086H19.7046C12.0342 7.88086 9.05129 9.70923 9.05129 14.4108V25.4085C9.05129 28.5703 11.8548 31.9384 19.7046 31.9384H33.1614C40.5178 31.9384 43.5455 30.2612 43.7922 25.9859L47.0892 27.4156C48.4797 28.0205 49.6908 28.2129 50.6552 28.2129C51.485 28.2129 52.1355 28.0617 52.5616 27.9242C53.4811 27.6355 55.0287 26.852 55.0287 24.8861V14.9332C55.0287 12.9673 53.4811 12.1837 52.5616 11.895ZM29.7972 19.0573C27.4871 19.0573 25.5807 17.9025 25.5807 16.4728C25.5807 15.0431 27.4871 13.8884 29.7972 13.8884C32.1073 13.8884 34.0136 15.0431 34.0136 16.4728C34.0136 17.9025 32.1073 19.0573 29.7972 19.0573Z" fill="white"/>
</svg>
