<svg width="540" height="629" viewBox="0 0 540 629" fill="none" xmlns="http://www.w3.org/2000/svg">
<path d="M539.784 300.111C539.784 431.425 409.534 628.346 293.949 628.346C178.364 628.346 411.46 431.425 411.46 300.111C411.46 168.797 214.915 62.3464 330.5 62.3464C446.085 62.3464 539.784 168.797 539.784 300.111Z" fill="#00A3FF"/>
<path d="M7.20203 225.5C140 115.5 202 -8.00027 256.5 1.99986C294.5 -15.5004 394.5 137 532.5 225.5L291.702 195.5L264 232L7.20203 225.5Z" fill="#00A3FF"/>
<path d="M539 262C539 372.733 418.341 557.5 269.5 557.5C120.659 557.5 0 372.733 0 262C0 151.267 120.659 61.5 269.5 61.5C418.341 61.5 539 151.267 539 262Z" fill="#00A3FF"/>
<circle cx="173" cy="271.5" r="39" fill="white"/>
<circle cx="270" cy="271.5" r="39" fill="white"/>
<circle cx="367" cy="271.5" r="39" fill="white"/>
</svg>
